<svg width="120" height="120" viewBox="0 0 120 120" fill="none" xmlns="http://www.w3.org/2000/svg">
  <defs>
    <linearGradient id="ecommerceGradient" x1="0%" y1="0%" x2="100%" y2="100%">
      <stop offset="0%" style="stop-color:#10B981;stop-opacity:1" />
      <stop offset="100%" style="stop-color:#047857;stop-opacity:1" />
    </linearGradient>
    <filter id="glow" x="-20%" y="-20%" width="140%" height="140%">
      <feGaussianBlur in="SourceGraphic" stdDeviation="1" result="blur" />
      <feComposite in="SourceGraphic" in2="blur" operator="over" />
    </filter>
  </defs>

  <!-- Background circle -->
  <circle cx="60" cy="60" r="50" fill="url(#ecommerceGradient)" filter="url(#glow)" opacity="0.1"/>

  <!-- Shopping cart and digital elements -->
  <g transform="translate(25, 30)" filter="url(#glow)">
    <!-- Cart base -->
    <path d="M10 45H50L55 15H5L10 45Z" 
          fill="none" 
          stroke="url(#ecommerceGradient)" 
          stroke-width="2"/>
    
    <!-- Cart wheels -->
    <circle cx="20" cy="55" r="5" 
            fill="none" 
            stroke="url(#ecommerceGradient)" 
            stroke-width="2"/>
    <circle cx="40" cy="55" r="5" 
            fill="none" 
            stroke="url(#ecommerceGradient)" 
            stroke-width="2"/>

    <!-- Digital product box -->
    <rect x="20" y="25" width="20" height="15" 
          fill="none" 
          stroke="url(#ecommerceGradient)" 
          stroke-width="2"/>

    <!-- Circuit patterns -->
    <g opacity="0.6">
      <path d="M25 30H35M25 35H35" 
            stroke="#10B981" 
            stroke-width="0.5" 
            stroke-dasharray="1 2"/>
      <circle cx="23" cy="30" r="1" fill="#10B981"/>
      <circle cx="37" cy="35" r="1" fill="#10B981"/>
    </g>
  </g>

  <!-- Security elements -->
  <g transform="translate(65, 25)">
    <!-- Shield -->
    <path d="M15 5L5 10V20C5 25 10 30 15 31C20 30 25 25 25 20V10L15 5Z" 
          fill="none" 
          stroke="#10B981" 
          stroke-width="1" 
          opacity="0.8"/>

    <!-- Lock -->
    <rect x="12" y="17" width="6" height="5" rx="1" 
          fill="none" 
          stroke="#10B981" 
          stroke-width="1"/>
    <path d="M13 17V15C13 13.9 13.9 13 15 13V13C16.1 13 17 13.9 17 15V17" 
          stroke="#10B981" 
          stroke-width="1" 
          stroke-linecap="round"/>
  </g>

  <!-- Payment elements -->
  <g transform="translate(65, 60)" opacity="0.8">
    <!-- Credit card outline -->
    <rect x="0" y="0" width="30" height="20" rx="2" 
          fill="none" 
          stroke="#10B981" 
          stroke-width="1"/>
    
    <!-- Card details -->
    <path d="M5 5H25M5 10H15" 
          stroke="#10B981" 
          stroke-width="1" 
          stroke-linecap="round"/>
    
    <!-- Chip -->
    <rect x="5" y="13" width="5" height="4" rx="1" 
          fill="none" 
          stroke="#10B981" 
          stroke-width="1"/>
  </g>
</svg>