<svg width="120" height="120" viewBox="0 0 120 120" fill="none" xmlns="http://www.w3.org/2000/svg">
  <defs>
    <linearGradient id="financeGradient" x1="0%" y1="0%" x2="100%" y2="100%">
      <stop offset="0%" style="stop-color:#10B981;stop-opacity:1" />
      <stop offset="100%" style="stop-color:#047857;stop-opacity:1" />
    </linearGradient>
    <filter id="glow" x="-20%" y="-20%" width="140%" height="140%">
      <feGaussianBlur in="SourceGraphic" stdDeviation="1" result="blur" />
      <feComposite in="SourceGraphic" in2="blur" operator="over" />
    </filter>
  </defs>

  <!-- Background circle -->
  <circle cx="60" cy="60" r="50" fill="url(#financeGradient)" filter="url(#glow)" opacity="0.1"/>

  <!-- Main building structure -->
  <g transform="translate(30, 25)" filter="url(#glow)">
    <!-- Columns -->
    <rect x="5" y="20" width="8" height="45" rx="1" fill="url(#financeGradient)"/>
    <rect x="23" y="20" width="8" height="45" rx="1" fill="url(#financeGradient)"/>
    <rect x="41" y="20" width="8" height="45" rx="1" fill="url(#financeGradient)"/>

    <!-- Roof -->
    <path d="M0 20L30 5L60 20" stroke="url(#financeGradient)" stroke-width="2" fill="none"/>

    <!-- Base -->
    <rect x="0" y="65" width="54" height="5" rx="1" fill="url(#financeGradient)"/>

    <!-- Digital elements -->
    <g opacity="0.6">
      <!-- Circuit lines -->
      <path d="M5 30H15M23 40H33M41 35H51" 
            stroke="#10B981" 
            stroke-width="0.5" 
            stroke-dasharray="1 2"/>

      <!-- Data points -->
      <circle cx="15" cy="30" r="1" fill="#10B981"/>
      <circle cx="33" cy="40" r="1" fill="#10B981"/>
      <circle cx="51" cy="35" r="1" fill="#10B981"/>
    </g>

    <!-- Security shield overlay -->
    <g transform="translate(22, 25)" opacity="0.8">
      <path d="M5 2L2 3.5V7C2 9 3.5 11 5 11.5C6.5 11 8 9 8 7V3.5L5 2Z" 
            fill="none" 
            stroke="#10B981" 
            stroke-width="0.5"/>
    </g>
  </g>

  <!-- Modern financial elements -->
  <g transform="translate(75, 35)" opacity="0.8">
    <!-- Chart lines -->
    <path d="M0 30L10 20L20 25L30 15" 
          stroke="#10B981" 
          stroke-width="1.5" 
          fill="none" 
          stroke-linecap="round"/>
    
    <!-- Data points -->
    <circle cx="0" cy="30" r="2" fill="#10B981"/>
    <circle cx="10" cy="20" r="2" fill="#10B981"/>
    <circle cx="20" cy="25" r="2" fill="#10B981"/>
    <circle cx="30" cy="15" r="2" fill="#10B981"/>
  </g>
</svg>