<svg width="120" height="120" viewBox="0 0 120 120" fill="none" xmlns="http://www.w3.org/2000/svg">
  <defs>
    <linearGradient id="industriaGradient" x1="0%" y1="0%" x2="100%" y2="100%">
      <stop offset="0%" style="stop-color:#10B981;stop-opacity:1" />
      <stop offset="100%" style="stop-color:#047857;stop-opacity:1" />
    </linearGradient>
    <filter id="glow" x="-20%" y="-20%" width="140%" height="140%">
      <feGaussianBlur in="SourceGraphic" stdDeviation="1" result="blur" />
      <feComposite in="SourceGraphic" in2="blur" operator="over" />
    </filter>
  </defs>

  <!-- Background circle -->
  <circle cx="60" cy="60" r="50" fill="url(#industriaGradient)" filter="url(#glow)" opacity="0.1"/>

  <!-- Factory and Industry 4.0 elements -->
  <g transform="translate(25, 30)" filter="url(#glow)">
    <!-- Factory building base -->
    <path d="M0 60H70V30L50 20V40L30 30V50L10 40V60Z" 
          fill="none" 
          stroke="url(#industriaGradient)" 
          stroke-width="2"/>

    <!-- Chimneys -->
    <path d="M15 25V40M35 15V30M55 10V20" 
          stroke="url(#industriaGradient)" 
          stroke-width="3" 
          stroke-linecap="round"/>

    <!-- Windows/Panels -->
    <rect x="20" y="45" width="8" height="8" rx="1" 
          fill="none" 
          stroke="url(#industriaGradient)" 
          stroke-width="1"/>
    <rect x="40" y="45" width="8" height="8" rx="1" 
          fill="none" 
          stroke="url(#industriaGradient)" 
          stroke-width="1"/>

    <!-- Digital elements -->
    <g opacity="0.6">
      <!-- Circuit lines -->
      <path d="M20 35H40M30 25H50M40 15H60" 
            stroke="#10B981" 
            stroke-width="0.5" 
            stroke-dasharray="1 2"/>

      <!-- Connection points -->
      <circle cx="20" cy="35" r="1" fill="#10B981"/>
      <circle cx="40" cy="35" r="1" fill="#10B981"/>
      <circle cx="30" cy="25" r="1" fill="#10B981"/>
      <circle cx="50" cy="25" r="1" fill="#10B981"/>
      <circle cx="40" cy="15" r="1" fill="#10B981"/>
      <circle cx="60" cy="15" r="1" fill="#10B981"/>
    </g>
  </g>

  <!-- IoT and Connectivity -->
  <g transform="translate(70, 25)">
    <!-- Wireless signals -->
    <path d="M0 30C10 30 20 20 20 10M5 25C12 25 18 18 18 12M10 20C14 20 16 16 16 14" 
          stroke="#10B981" 
          stroke-width="1" 
          fill="none" 
          stroke-linecap="round" 
          opacity="0.6"/>

    <!-- Connected devices -->
    <circle cx="25" cy="5" r="2" stroke="#10B981" stroke-width="1" fill="none"/>
    <circle cx="15" cy="15" r="2" stroke="#10B981" stroke-width="1" fill="none"/>
    <circle cx="30" cy="20" r="2" stroke="#10B981" stroke-width="1" fill="none"/>

    <!-- Connection lines -->
    <path d="M25 5L15 15L30 20" 
          stroke="#10B981" 
          stroke-width="0.5" 
          stroke-dasharray="1 2" 
          opacity="0.4"/>
  </g>

  <!-- Security Shield -->
  <g transform="translate(75, 60)" opacity="0.8">
    <path d="M15 5L5 10V20C5 25 10 30 15 31C20 30 25 25 25 20V10L15 5Z" 
          fill="none" 
          stroke="#10B981" 
          stroke-width="1"/>
    
    <!-- Lock symbol -->
    <rect x="12" y="17" width="6" height="5" rx="1" 
          fill="none" 
          stroke="#10B981" 
          stroke-width="1"/>
    <path d="M13 17V15C13 13.9 13.9 13 15 13V13C16.1 13 17 13.9 17 15V17" 
          stroke="#10B981" 
          stroke-width="1" 
          stroke-linecap="round"/>
  </g>
</svg>