<svg xmlns="http://www.w3.org/2000/svg" viewBox="0 0 1000 500">
  <!-- Mapa mundial simplificado pero realista -->
  <defs>
    <style>
      .continent { fill: #1f2937; stroke: #374151; stroke-width: 0.5; }
      .ocean { fill: #0f172a; }
    </style>
  </defs>
  
  <!-- Fondo océano -->
  <rect width="1000" height="500" class="ocean"/>
  
  <!-- América del Norte -->
  <path class="continent" d="M50,80 Q80,60 120,70 L180,65 Q220,75 250,90 L280,110 Q290,140 285,170 L275,200 Q260,220 240,230 L200,240 Q170,245 140,240 L100,235 Q70,220 55,190 L50,160 Q45,120 50,80 Z"/>
  
  <!-- Groenlandia -->
  <path class="continent" d="M280,40 Q300,35 320,45 L330,60 Q325,80 315,90 L300,95 Q285,90 280,75 L275,60 Q275,50 280,40 Z"/>
  
  <!-- América del Sur -->
  <path class="continent" d="M220,260 Q240,250 260,265 L280,290 Q285,320 280,350 L275,380 Q270,410 260,430 L250,450 Q240,460 225,455 L210,450 Q200,440 195,425 L190,400 Q185,375 190,350 L195,325 Q200,300 210,280 L220,260 Z"/>
  
  <!-- Europa -->
  <path class="continent" d="M450,90 Q480,85 510,95 L540,105 Q560,115 570,130 L575,150 Q570,170 560,180 L540,185 Q520,180 500,175 L480,170 Q460,165 450,150 L445,130 Q445,110 450,90 Z"/>
  
  <!-- África -->
  <path class="continent" d="M480,200 Q510,195 530,210 L545,230 Q550,260 545,290 L540,320 Q535,350 530,380 L525,410 Q515,430 500,440 L485,445 Q470,440 460,425 L455,400 Q450,375 455,350 L460,325 Q465,300 470,275 L475,250 Q475,225 480,200 Z"/>
  
  <!-- Asia -->
  <path class="continent" d="M580,70 Q620,65 660,75 L700,85 Q740,95 780,110 L820,125 Q850,140 870,160 L880,180 Q875,200 865,215 L850,230 Q830,240 810,245 L790,250 Q770,245 750,240 L730,235 Q710,230 690,220 L670,210 Q650,200 630,185 L610,170 Q590,155 580,135 L575,115 Q575,95 580,70 Z"/>
  
  <!-- Australia -->
  <path class="continent" d="M750,320 Q780,315 810,325 L840,335 Q860,345 870,360 L875,375 Q870,390 860,400 L840,405 Q820,400 800,395 L780,390 Q760,385 750,370 L745,355 Q745,340 750,320 Z"/>
  
  <!-- Nueva Zelanda -->
  <path class="continent" d="M880,380 Q890,375 895,385 L900,395 Q895,405 885,410 L875,405 Q870,395 875,385 L880,380 Z"/>
  <path class="continent" d="M885,420 Q895,415 900,425 L905,435 Q900,445 890,450 L880,445 Q875,435 880,425 L885,420 Z"/>
  
  <!-- Antártida -->
  <path class="continent" d="M100,470 Q200,465 300,470 L400,475 Q500,480 600,475 L700,470 Q800,465 900,470 L950,475 Q950,490 900,495 L800,500 Q700,495 600,490 L500,485 Q400,480 300,485 L200,490 Q100,495 50,490 L50,475 Q75,470 100,470 Z"/>
</svg>