<svg width="120" height="120" viewBox="0 0 120 120" fill="none" xmlns="http://www.w3.org/2000/svg">
  <defs>
    <linearGradient id="startupGradient" x1="0%" y1="0%" x2="100%" y2="100%">
      <stop offset="0%" style="stop-color:#10B981;stop-opacity:1" />
      <stop offset="100%" style="stop-color:#047857;stop-opacity:1" />
    </linearGradient>
    <filter id="glow" x="-20%" y="-20%" width="140%" height="140%">
      <feGaussianBlur in="SourceGraphic" stdDeviation="1" result="blur" />
      <feComposite in="SourceGraphic" in2="blur" operator="over" />
    </filter>
  </defs>

  <!-- Background circle -->
  <circle cx="60" cy="60" r="50" fill="url(#startupGradient)" filter="url(#glow)" opacity="0.1"/>

  <!-- Rocket and Innovation elements -->
  <g transform="translate(35, 25)" filter="url(#glow)">
    <!-- Rocket body -->
    <path d="M25 60L15 45V30C15 20 25 10 25 10C25 10 35 20 35 30V45L25 60Z" 
          fill="none" 
          stroke="url(#startupGradient)" 
          stroke-width="2"/>

    <!-- Rocket window -->
    <circle cx="25" cy="25" r="5" 
            fill="none" 
            stroke="url(#startupGradient)" 
            stroke-width="1.5"/>

    <!-- Rocket fins -->
    <path d="M15 40L10 45L15 42.5M35 40L40 45L35 42.5" 
          stroke="url(#startupGradient)" 
          stroke-width="1.5" 
          stroke-linecap="round"/>

    <!-- Thrust flames -->
    <path d="M20 45L25 55L30 45" 
          stroke="#10B981" 
          stroke-width="1.5" 
          stroke-linecap="round" 
          opacity="0.6"/>
  </g>

  <!-- Digital Innovation Elements -->
  <g transform="translate(65, 30)">
    <!-- Circuit board patterns -->
    <g opacity="0.6">
      <path d="M0 0H20M10 0V20M0 10H20M0 20H20" 
            stroke="#10B981" 
            stroke-width="0.5" 
            stroke-dasharray="1 2"/>

      <!-- Connection nodes -->
      <circle cx="0" cy="0" r="1.5" fill="#10B981"/>
      <circle cx="10" cy="10" r="1.5" fill="#10B981"/>
      <circle cx="20" cy="0" r="1.5" fill="#10B981"/>
      <circle cx="0" cy="20" r="1.5" fill="#10B981"/>
      <circle cx="20" cy="20" r="1.5" fill="#10B981"/>
    </g>

    <!-- Data flow lines -->
    <path d="M5 5L15 15M15 5L5 15" 
          stroke="#10B981" 
          stroke-width="0.8" 
          stroke-linecap="round" 
          opacity="0.4"/>
  </g>

  <!-- Cloud and Connectivity -->
  <g transform="translate(70, 60)">
    <!-- Cloud shape -->
    <path d="M10 15C10 18 7 20 4 20C0 20 0 15 2 13C2 10 4 8 7 8C9 8 10 9 10 11C11 9 14 9 15 11C17 9 20 10 20 13C20 15 18 17 15 17" 
          stroke="#10B981" 
          stroke-width="1" 
          fill="none" 
          opacity="0.8"/>

    <!-- Upload/Download arrows -->
    <path d="M10 12L13 9L16 12M13 9V15" 
          stroke="#10B981" 
          stroke-width="1" 
          stroke-linecap="round" 
          opacity="0.8"/>
  </g>

  <!-- Security Shield -->
  <g transform="translate(15, 45)" opacity="0.8">
    <path d="M15 5L5 10V20C5 25 10 30 15 31C20 30 25 25 25 20V10L15 5Z" 
          fill="none" 
          stroke="#10B981" 
          stroke-width="1"/>
    
    <!-- Lock symbol -->
    <rect x="12" y="17" width="6" height="5" rx="1" 
          fill="none" 
          stroke="#10B981" 
          stroke-width="1"/>
    <path d="M13 17V15C13 13.9 13.9 13 15 13V13C16.1 13 17 13.9 17 15V17" 
          stroke="#10B981" 
          stroke-width="1" 
          stroke-linecap="round"/>
  </g>
</svg>